<svg width="26" height="26" viewBox="0 0 26 26" fill="none" xmlns="http://www.w3.org/2000/svg">
<g clip-path="url(#clip0_116572_9400)">
<path d="M7.35239 10.6306C7.35239 10.9492 7.38692 11.2075 7.44715 11.3969C7.52362 11.61 7.61568 11.8171 7.72259 12.0167C7.76565 12.0856 7.78281 12.1544 7.78281 12.2148C7.78281 12.3008 7.73122 12.3869 7.6193 12.473L7.07695 12.8346C6.99946 12.8863 6.92197 12.9121 6.85301 12.9121C6.76698 12.9121 6.68086 12.869 6.59473 12.7915C6.47864 12.667 6.37487 12.5314 6.28487 12.3869C6.19874 12.2406 6.11262 12.0769 6.01796 11.879C5.34636 12.671 4.50265 13.067 3.48682 13.0671C2.7637 13.0671 2.18682 12.8604 1.76493 12.4472C1.34314 12.0339 1.12793 11.4829 1.12793 10.7942C1.12793 10.0624 1.3862 9.4684 1.91138 9.02071C2.43646 8.57302 3.13389 8.34918 4.02063 8.34918C4.31334 8.34918 4.61467 8.37498 4.93317 8.41804C5.25177 8.4611 5.57891 8.52996 5.9233 8.60745V7.97898C5.9233 7.32462 5.78548 6.8684 5.51858 6.60149C5.24314 6.33459 4.77819 6.2054 4.11529 6.2054C3.81395 6.2054 3.50409 6.23993 3.18548 6.31742C2.86688 6.39491 2.55702 6.48957 2.25568 6.61013C2.11796 6.67035 2.01467 6.70478 1.95434 6.72205C1.89402 6.73931 1.85105 6.74784 1.81662 6.74784C1.69607 6.74784 1.63584 6.66172 1.63584 6.48094V6.05905C1.63584 5.92133 1.65311 5.81804 1.69607 5.75781C1.73913 5.69748 1.81663 5.63726 1.93718 5.57703C2.23848 5.42198 2.60004 5.29283 3.02187 5.18957C3.44386 5.07765 3.89155 5.02605 4.36503 5.02605C5.38959 5.02605 6.13862 5.25843 6.62073 5.72338C7.09422 6.18823 7.33533 6.8942 7.33533 7.84127V10.6306H7.35239ZM3.85702 11.9392C4.14119 11.9392 4.43389 11.8876 4.74376 11.7842C5.05373 11.6809 5.32927 11.4915 5.56164 11.2333C5.69946 11.0697 5.80275 10.889 5.85434 10.6823C5.90604 10.4757 5.94047 10.226 5.94047 9.93325V9.57169C5.67937 9.50818 5.41493 9.45932 5.14838 9.42534C4.87997 9.39128 4.6097 9.37401 4.33913 9.37364C3.76226 9.37364 3.34047 9.48556 3.0564 9.71804C2.77233 9.95052 2.63451 10.2776 2.63451 10.7081C2.63451 11.1127 2.7378 11.414 2.95301 11.6207C3.15969 11.8359 3.46102 11.9392 3.85702 11.9392ZM10.7703 12.869C10.6153 12.869 10.512 12.8432 10.4431 12.7829C10.3743 12.7313 10.314 12.6107 10.2624 12.4472L8.23923 5.79224C8.18744 5.61999 8.16164 5.50807 8.16164 5.44784C8.16164 5.31012 8.2305 5.23253 8.36832 5.23253H9.212C9.37552 5.23253 9.48754 5.25843 9.54777 5.31866C9.61662 5.37035 9.66832 5.49091 9.71991 5.65442L11.1663 11.3538L12.5093 5.65442C12.5524 5.48227 12.6041 5.37035 12.6728 5.31866C12.7418 5.26706 12.8624 5.23263 13.0173 5.23263H13.706C13.8696 5.23263 13.9816 5.25843 14.0503 5.31866C14.1193 5.37035 14.1795 5.49091 14.214 5.65442L15.5743 11.4227L17.0636 5.65442C17.1152 5.48227 17.1755 5.37035 17.2357 5.31866C17.3046 5.26706 17.4165 5.23263 17.5715 5.23263H18.3721C18.5099 5.23263 18.5874 5.30149 18.5874 5.44784C18.5874 5.49091 18.5788 5.53397 18.5702 5.58556C18.5615 5.63716 18.5444 5.70612 18.5099 5.80087L16.435 12.4558C16.3834 12.628 16.3232 12.7399 16.2542 12.7915C16.1854 12.8432 16.0735 12.8776 15.9272 12.8776H15.1868C15.0232 12.8776 14.9113 12.8519 14.8423 12.7915C14.7735 12.7313 14.7132 12.6194 14.6788 12.4472L13.3443 6.8942L12.0185 12.4385C11.9755 12.6107 11.9238 12.7227 11.855 12.7829C11.7861 12.8432 11.6655 12.869 11.5107 12.869H10.7703ZM21.8332 13.1015C21.3855 13.1015 20.9378 13.0498 20.5074 12.9465C20.0769 12.8432 19.7412 12.7312 19.5173 12.6022C19.3795 12.5246 19.2848 12.4386 19.2504 12.3611C19.217 12.2851 19.1994 12.203 19.1987 12.12V11.6809C19.1987 11.5002 19.2676 11.414 19.3968 11.414C19.4495 11.4142 19.5019 11.423 19.5518 11.4399C19.6034 11.4572 19.6809 11.4915 19.767 11.526C20.071 11.6598 20.3885 11.7608 20.714 11.8273C21.0512 11.8957 21.3944 11.9303 21.7385 11.9306C22.2809 11.9306 22.7028 11.8359 22.9955 11.6465C23.2882 11.4571 23.4431 11.1817 23.4431 10.8286C23.4431 10.5876 23.3657 10.3896 23.2107 10.226C23.0557 10.0623 22.763 9.91609 22.3412 9.77827L21.0928 9.39091C20.4643 9.19286 19.9995 8.90016 19.7153 8.5127C19.4312 8.13387 19.2849 7.71208 19.2849 7.26439C19.2849 6.90283 19.3624 6.58426 19.5173 6.30869C19.6722 6.03325 19.8789 5.79224 20.1372 5.60283C20.3955 5.40478 20.6882 5.25843 21.0326 5.15514C21.3769 5.05185 21.7384 5.00879 22.1172 5.00879C22.3067 5.00879 22.5047 5.01742 22.6941 5.04322C22.8922 5.06902 23.0729 5.10345 23.2537 5.13787C23.4259 5.18094 23.5895 5.224 23.7445 5.2757C23.8994 5.32729 24.0199 5.37892 24.106 5.43058C24.2266 5.49954 24.3126 5.5684 24.3643 5.64589C24.416 5.71475 24.4418 5.80944 24.4418 5.92996V6.33459C24.4418 6.51537 24.3729 6.61013 24.2438 6.61013C24.1749 6.61013 24.063 6.57559 23.9167 6.50673C23.4258 6.28289 22.8748 6.17097 22.2637 6.17097C21.7729 6.17097 21.3855 6.24846 21.1186 6.41208C20.8518 6.57559 20.714 6.82534 20.714 7.17827C20.714 7.41937 20.8001 7.62595 20.9722 7.78957C21.1444 7.95319 21.463 8.1167 21.9193 8.26305L23.1418 8.65052C23.7616 8.84856 24.2093 9.124 24.4762 9.47693C24.7431 9.82986 24.8723 10.2346 24.8723 10.6823C24.8723 11.0525 24.7947 11.3882 24.6484 11.6809C24.4935 11.9736 24.2868 12.2319 24.0199 12.4386C23.753 12.6538 23.4345 12.8088 23.0643 12.9207C22.6769 13.0413 22.2722 13.1015 21.8332 13.1015Z" fill="#252F3E"/>
<path d="M23.4603 17.2852C20.6279 19.3773 16.5126 20.4878 12.9743 20.4878C8.01528 20.4878 3.54714 18.654 0.172319 15.6063C-0.0945873 15.3653 0.146421 15.0382 0.464921 15.2275C4.11528 17.3455 8.61795 18.6282 13.2756 18.6282C16.4179 18.6282 19.8703 17.974 23.0471 16.6309C23.5206 16.4156 23.9252 16.9409 23.4603 17.2852ZM24.6398 15.9421C24.2783 15.4773 22.2464 15.7183 21.3252 15.8302C21.0497 15.8647 21.0066 15.6236 21.2564 15.4428C22.8749 14.3063 25.5352 14.6336 25.8451 15.0123C26.1551 15.3998 25.759 18.06 24.2437 19.3342C24.0114 19.5322 23.7875 19.429 23.8908 19.1707C24.2351 18.3183 25.0014 16.3984 24.6398 15.9421Z" fill="#FF9900"/>
</g>
<defs>
<clipPath id="clip0_116572_9400">
<rect width="26" height="15.5391" fill="white" transform="translate(0 5)"/>
</clipPath>
</defs>
</svg>
