<svg width="26" height="26" viewBox="0 0 26 26" fill="none" xmlns="http://www.w3.org/2000/svg">
<path d="M3.95605 20.6395L4.10706 20.429L11.2309 6.91509L11.246 6.77208L8.10599 0.874056C8.04851 0.766202 7.95856 0.679152 7.84889 0.625224C7.73921 0.571295 7.61535 0.553218 7.49484 0.573549C7.37432 0.593881 7.26325 0.651591 7.17734 0.738517C7.09143 0.825442 7.03502 0.937181 7.0161 1.05793L3.95605 20.6395Z" fill="#FFC24A"/>
<path d="M4.04492 20.4792L4.15862 20.2572L11.2087 6.88359L8.07672 0.962466C8.02507 0.859493 7.94145 0.776027 7.83838 0.724573C7.7353 0.673119 7.61834 0.656447 7.50499 0.677054C7.39165 0.697662 7.28804 0.75444 7.20968 0.838882C7.13131 0.923324 7.08242 1.03088 7.07032 1.14545L4.04492 20.4792Z" fill="#FFA712"/>
<path d="M13.5348 11.233L15.8727 8.83468L13.5339 4.37474C13.4824 4.27875 13.4059 4.19853 13.3124 4.1426C13.219 4.08667 13.1121 4.05713 13.0032 4.05713C12.8943 4.05713 12.7874 4.08667 12.6939 4.1426C12.6005 4.19853 12.5239 4.27875 12.4724 4.37474L11.2227 6.75704V6.96046L13.5348 11.233Z" fill="#F4BD62"/>
<path d="M13.4934 11.1353L15.7664 8.8081L13.4934 4.47341C13.4562 4.37958 13.3926 4.29852 13.3104 4.23999C13.2282 4.18147 13.1307 4.14798 13.0299 4.14357C12.9291 4.13915 12.8291 4.164 12.7421 4.21512C12.655 4.26624 12.5847 4.34144 12.5394 4.43166L11.2834 6.85571L11.2461 6.97918L13.4934 11.1353Z" fill="#FFA50E"/>
<path d="M3.95801 20.6404L4.0264 20.5711L4.27423 20.4708L13.3877 11.391L13.5032 11.0766L11.2302 6.74365L3.95801 20.6404Z" fill="#F6820C"/>
<path d="M13.8264 25.2191L22.0765 20.6188L19.7191 6.11271C19.7022 6.01045 19.6574 5.91482 19.5897 5.83633C19.522 5.75783 19.434 5.69951 19.3354 5.66775C19.2367 5.636 19.1312 5.63204 19.0304 5.65632C18.9297 5.68059 18.8376 5.73217 18.7642 5.80537L3.95605 20.6393L12.1573 25.2182C12.4124 25.3603 12.6995 25.4348 12.9914 25.4348C13.2833 25.4348 13.5704 25.3603 13.8255 25.2182" fill="#FDE068"/>
<path d="M22.001 20.5812L19.6631 6.18435C19.659 6.08654 19.626 5.99215 19.5682 5.91313C19.5104 5.83411 19.4304 5.77402 19.3385 5.74045C19.2465 5.70688 19.1467 5.70134 19.0516 5.72455C18.9565 5.74775 18.8704 5.79864 18.8042 5.87079L4.04492 20.6123L12.1556 25.1424C12.4085 25.2837 12.6933 25.3579 12.983 25.3579C13.2727 25.3579 13.5575 25.2837 13.8104 25.1424L22.001 20.5812Z" fill="#FCCA3F"/>
<path d="M13.8264 25.0807C13.5713 25.2227 13.2842 25.2973 12.9923 25.2973C12.7004 25.2973 12.4133 25.2227 12.1582 25.0807L4.02356 20.5701L3.95605 20.6394L12.1573 25.2184C12.4124 25.3604 12.6995 25.435 12.9914 25.435C13.2833 25.435 13.5704 25.3604 13.8255 25.2184L22.0765 20.619L22.0561 20.4946L13.8264 25.0807Z" fill="#EEAB37"/>
</svg>
