<svg width="26" height="26" viewBox="0 0 26 26" fill="none" xmlns="http://www.w3.org/2000/svg">
<g clip-path="url(#clip0_116572_9380)">
<g clip-path="url(#clip1_116572_9380)">
<path d="M14.969 6.98773L14.9429 0H11.0312L11.0574 6.98773L13.0131 9.6634L14.969 6.98773ZM11.0574 18.963V25.9767H14.969V18.963L13.0131 16.2874L11.0574 18.963Z" fill="white"/>
<path d="M14.9685 18.9629L19.0889 24.6259L22.2443 22.3399L18.1239 16.677L14.9685 15.6639V18.9629ZM11.0568 6.98765L6.91033 1.32471L3.75488 3.61068L7.87527 9.27362L11.0568 10.2867V6.98765Z" fill="#00F2E6"/>
<path d="M7.87566 9.27375L1.19955 7.11768L0 10.8063L6.67601 12.9884L9.83145 11.9493L7.87566 9.27375ZM16.1685 14.0015L18.1243 16.6772L24.8004 18.8332L26 15.1445L19.324 12.9884L16.1685 14.0015Z" fill="#00B9F1"/>
<path d="M19.324 12.9884L26 10.8063L24.8004 7.11768L18.1243 9.27375L16.1685 11.9493L19.324 12.9884ZM6.67601 12.9884L0 15.1445L1.19955 18.8332L7.87566 16.6772L9.83145 14.0015L6.67601 12.9884Z" fill="#D63AFF"/>
<path d="M7.87527 16.677L3.75488 22.3399L6.91033 24.6259L11.0568 18.9629V15.6639L7.87527 16.677ZM18.1239 9.27362L22.2443 3.61068L19.0889 1.32471L14.9685 6.98765V10.2867L18.1239 9.27362Z" fill="#FB015B"/>
</g>
</g>
<defs>
<clipPath id="clip0_116572_9380">
<rect width="26" height="26" fill="white"/>
</clipPath>
<clipPath id="clip1_116572_9380">
<rect width="26" height="26" fill="white"/>
</clipPath>
</defs>
</svg>
