<svg width="20" height="20" viewBox="0 0 20 20" fill="none" xmlns="http://www.w3.org/2000/svg">
<path d="M5.55536 3.77857C5.55512 4.25004 5.36761 4.7021 5.03406 5.03532C4.70051 5.36853 4.24826 5.55559 3.77679 5.55536C3.30532 5.55512 2.85325 5.36761 2.52004 5.03406C2.18683 4.70051 1.99976 4.24826 2 3.77679C2.00024 3.30532 2.18775 2.85325 2.5213 2.52004C2.85485 2.18683 3.3071 1.99976 3.77857 2C4.25004 2.00024 4.7021 2.18775 5.03532 2.5213C5.36853 2.85485 5.55559 3.3071 5.55536 3.77857ZM5.60869 6.87173H2.05333V18H5.60869V6.87173ZM11.2262 6.87173H7.68857V18H11.1906V12.1603C11.1906 8.90717 15.4304 8.60497 15.4304 12.1603V18H18.9413V10.9515C18.9413 5.46736 12.6661 5.6718 11.1906 8.36498L11.2262 6.87173Z" fill="#0A78B5"/>
</svg>
