<svg width="26" height="26" viewBox="0 0 26 26" fill="none" xmlns="http://www.w3.org/2000/svg">
<g clip-path="url(#clip0_116572_9404)">
<path d="M14.9722 24.6008C14.3596 25.3727 13.1152 24.9499 13.1015 23.9638L12.8848 9.54395H22.5813C24.3373 9.54395 25.3164 11.5721 24.2244 12.9469L14.9722 24.6008Z" fill="url(#paint0_linear_116572_9404)"/>
<path d="M14.9722 24.6008C14.3596 25.3727 13.1152 24.9499 13.1015 23.9638L12.8848 9.54395H22.5813C24.3373 9.54395 25.3164 11.5721 24.2244 12.9469L14.9722 24.6008Z" fill="url(#paint1_linear_116572_9404)" fill-opacity="0.2"/>
<path d="M11.0287 1.39917C11.6413 0.627228 12.8859 1.05004 12.8994 2.03592L12.9946 16.456H3.41957C1.66364 16.456 0.684512 14.4278 1.77632 13.053L11.0287 1.39917Z" fill="#73D13D"/>
</g>
<defs>
<linearGradient id="paint0_linear_116572_9404" x1="12.8856" y1="12.7422" x2="21.5032" y2="16.3563" gradientUnits="userSpaceOnUse">
<stop stop-color="#249361"/>
<stop offset="1" stop-color="#3ECF8E"/>
</linearGradient>
<linearGradient id="paint1_linear_116572_9404" x1="9.06502" y1="7.51107" x2="12.995" y2="14.9094" gradientUnits="userSpaceOnUse">
<stop/>
<stop offset="1" stop-opacity="0"/>
</linearGradient>
<clipPath id="clip0_116572_9404">
<rect width="24" height="24" fill="white" transform="translate(1 1)"/>
</clipPath>
</defs>
</svg>
